<svg width="15" height="13" viewBox="0 0 15 13" fill="none" xmlns="http://www.w3.org/2000/svg">
<path d="M11.2145 0.25592C9.92119 0.25592 8.77872 0.9052 8.09599 1.89453C8.09599 1.89453 7.86547 2.2395 7.49984 2.2395C7.13453 2.2395 6.90401 1.89453 6.90401 1.89453C6.22095 0.9052 5.07914 0.25592 3.7855 0.25592C1.69469 0.25592 0 1.95061 0 4.04207C0 4.53592 0.097064 5.00583 0.268894 5.43835C1.32938 8.73132 6.0724 12.6027 7.49984 12.7441C8.9276 12.6027 13.67 8.73132 14.7311 5.43835C14.9029 5.00616 15 4.53592 15 4.04207C15 1.95061 13.3053 0.25592 11.2145 0.25592Z" fill="#FF4135"/>
</svg>
