<svg width="15" height="13" viewBox="0 0 15 13" fill="none" xmlns="http://www.w3.org/2000/svg">
<path d="M11.2145 0.255936C9.92119 0.255936 8.77872 0.905215 8.09599 1.89455C8.09599 1.89455 7.86547 2.23952 7.49984 2.23952C7.13453 2.23952 6.90401 1.89455 6.90401 1.89455C6.22095 0.905215 5.07914 0.255936 3.7855 0.255936C1.69469 0.255936 0 1.95062 0 4.04209C0 4.53594 0.097064 5.00584 0.268894 5.43837C1.32938 8.73133 6.0724 12.6027 7.49984 12.7441C8.9276 12.6027 13.67 8.73133 14.7311 5.43837C14.9029 5.00617 15 4.53594 15 4.04209C15 1.95062 13.3053 0.255936 11.2145 0.255936Z" fill="white"/>
</svg>
